<mxfile host="app.diagrams.net" modified="2024-10-18T14:02:55.195Z" agent="Mozilla/5.0 (Windows NT 10.0; Win64; x64) AppleWebKit/537.36 (KHTML, like Gecko) Chrome/129.0.0.0 Safari/537.36" etag="K1zyBSDGO9ApBocFJOGf" version="24.4.13" type="device">
  <diagram name="Page-1" id="cNbenIPAUZ-OBlg_9YgL">
    <mxGraphModel dx="1910" dy="658" grid="1" gridSize="10" guides="1" tooltips="1" connect="1" arrows="1" fold="1" page="1" pageScale="1" pageWidth="850" pageHeight="1100" math="0" shadow="0">
      <root>
        <mxCell id="0" />
        <mxCell id="1" parent="0" />
        <mxCell id="5SM_mKAItrkfPZ67ftxn-34" style="edgeStyle=orthogonalEdgeStyle;rounded=0;orthogonalLoop=1;jettySize=auto;html=1;exitX=0.5;exitY=1;exitDx=0;exitDy=0;exitPerimeter=0;entryX=0.5;entryY=0;entryDx=0;entryDy=0;" edge="1" parent="1" source="5SM_mKAItrkfPZ67ftxn-32" target="5SM_mKAItrkfPZ67ftxn-33">
          <mxGeometry relative="1" as="geometry" />
        </mxCell>
        <mxCell id="5SM_mKAItrkfPZ67ftxn-32" value="Start" style="strokeWidth=2;html=1;shape=mxgraph.flowchart.start_1;whiteSpace=wrap;" vertex="1" parent="1">
          <mxGeometry x="360" y="10" width="100" height="60" as="geometry" />
        </mxCell>
        <mxCell id="5SM_mKAItrkfPZ67ftxn-33" value="User/Technician Login" style="rounded=1;whiteSpace=wrap;html=1;absoluteArcSize=1;arcSize=14;strokeWidth=2;" vertex="1" parent="1">
          <mxGeometry x="340" y="90" width="140" height="50" as="geometry" />
        </mxCell>
        <mxCell id="5SM_mKAItrkfPZ67ftxn-40" style="edgeStyle=orthogonalEdgeStyle;rounded=0;orthogonalLoop=1;jettySize=auto;html=1;exitX=0;exitY=0.5;exitDx=0;exitDy=0;exitPerimeter=0;entryX=1;entryY=0.5;entryDx=0;entryDy=0;" edge="1" parent="1" source="5SM_mKAItrkfPZ67ftxn-35" target="5SM_mKAItrkfPZ67ftxn-38">
          <mxGeometry relative="1" as="geometry" />
        </mxCell>
        <mxCell id="5SM_mKAItrkfPZ67ftxn-42" style="edgeStyle=orthogonalEdgeStyle;rounded=0;orthogonalLoop=1;jettySize=auto;html=1;exitX=1;exitY=0.5;exitDx=0;exitDy=0;exitPerimeter=0;entryX=0;entryY=0.5;entryDx=0;entryDy=0;" edge="1" parent="1" source="5SM_mKAItrkfPZ67ftxn-35" target="5SM_mKAItrkfPZ67ftxn-39">
          <mxGeometry relative="1" as="geometry" />
        </mxCell>
        <mxCell id="5SM_mKAItrkfPZ67ftxn-35" value="User or Technician?" style="strokeWidth=2;html=1;shape=mxgraph.flowchart.decision;whiteSpace=wrap;" vertex="1" parent="1">
          <mxGeometry x="360" y="170" width="100" height="100" as="geometry" />
        </mxCell>
        <mxCell id="5SM_mKAItrkfPZ67ftxn-36" value="Search Ticket" style="rounded=1;whiteSpace=wrap;html=1;absoluteArcSize=1;arcSize=14;strokeWidth=2;" vertex="1" parent="1">
          <mxGeometry x="-40" y="250" width="100" height="40" as="geometry" />
        </mxCell>
        <mxCell id="5SM_mKAItrkfPZ67ftxn-41" style="edgeStyle=orthogonalEdgeStyle;rounded=0;orthogonalLoop=1;jettySize=auto;html=1;exitX=0;exitY=0.5;exitDx=0;exitDy=0;" edge="1" parent="1" source="5SM_mKAItrkfPZ67ftxn-38">
          <mxGeometry relative="1" as="geometry">
            <mxPoint x="10" y="250" as="targetPoint" />
            <Array as="points">
              <mxPoint x="11" y="220" />
            </Array>
          </mxGeometry>
        </mxCell>
        <mxCell id="5SM_mKAItrkfPZ67ftxn-50" style="edgeStyle=orthogonalEdgeStyle;rounded=0;orthogonalLoop=1;jettySize=auto;html=1;exitX=0;exitY=0.5;exitDx=0;exitDy=0;entryX=0.5;entryY=0;entryDx=0;entryDy=0;" edge="1" parent="1" source="5SM_mKAItrkfPZ67ftxn-38" target="5SM_mKAItrkfPZ67ftxn-45">
          <mxGeometry relative="1" as="geometry" />
        </mxCell>
        <mxCell id="5SM_mKAItrkfPZ67ftxn-51" style="edgeStyle=orthogonalEdgeStyle;rounded=0;orthogonalLoop=1;jettySize=auto;html=1;exitX=0.5;exitY=1;exitDx=0;exitDy=0;entryX=0.5;entryY=0;entryDx=0;entryDy=0;" edge="1" parent="1" source="5SM_mKAItrkfPZ67ftxn-38" target="5SM_mKAItrkfPZ67ftxn-46">
          <mxGeometry relative="1" as="geometry" />
        </mxCell>
        <mxCell id="5SM_mKAItrkfPZ67ftxn-52" style="edgeStyle=orthogonalEdgeStyle;rounded=0;orthogonalLoop=1;jettySize=auto;html=1;exitX=0;exitY=0.5;exitDx=0;exitDy=0;entryX=0.5;entryY=0;entryDx=0;entryDy=0;" edge="1" parent="1" source="5SM_mKAItrkfPZ67ftxn-38" target="5SM_mKAItrkfPZ67ftxn-47">
          <mxGeometry relative="1" as="geometry" />
        </mxCell>
        <mxCell id="5SM_mKAItrkfPZ67ftxn-53" style="edgeStyle=orthogonalEdgeStyle;rounded=0;orthogonalLoop=1;jettySize=auto;html=1;exitX=0;exitY=0.5;exitDx=0;exitDy=0;entryX=0.5;entryY=0;entryDx=0;entryDy=0;" edge="1" parent="1" source="5SM_mKAItrkfPZ67ftxn-38" target="5SM_mKAItrkfPZ67ftxn-48">
          <mxGeometry relative="1" as="geometry" />
        </mxCell>
        <mxCell id="5SM_mKAItrkfPZ67ftxn-63" style="edgeStyle=orthogonalEdgeStyle;rounded=0;orthogonalLoop=1;jettySize=auto;html=1;exitX=0;exitY=0.5;exitDx=0;exitDy=0;entryX=0.5;entryY=0;entryDx=0;entryDy=0;" edge="1" parent="1" source="5SM_mKAItrkfPZ67ftxn-38" target="5SM_mKAItrkfPZ67ftxn-62">
          <mxGeometry relative="1" as="geometry" />
        </mxCell>
        <mxCell id="5SM_mKAItrkfPZ67ftxn-38" value="User" style="text;html=1;align=center;verticalAlign=middle;whiteSpace=wrap;rounded=0;" vertex="1" parent="1">
          <mxGeometry x="220" y="205" width="60" height="30" as="geometry" />
        </mxCell>
        <mxCell id="5SM_mKAItrkfPZ67ftxn-43" style="edgeStyle=orthogonalEdgeStyle;rounded=0;orthogonalLoop=1;jettySize=auto;html=1;exitX=1;exitY=0.5;exitDx=0;exitDy=0;" edge="1" parent="1" source="5SM_mKAItrkfPZ67ftxn-39">
          <mxGeometry relative="1" as="geometry">
            <mxPoint x="830" y="240" as="targetPoint" />
          </mxGeometry>
        </mxCell>
        <mxCell id="5SM_mKAItrkfPZ67ftxn-60" style="edgeStyle=orthogonalEdgeStyle;rounded=0;orthogonalLoop=1;jettySize=auto;html=1;exitX=1;exitY=0.5;exitDx=0;exitDy=0;entryX=0.5;entryY=0;entryDx=0;entryDy=0;" edge="1" parent="1" source="5SM_mKAItrkfPZ67ftxn-39" target="5SM_mKAItrkfPZ67ftxn-57">
          <mxGeometry relative="1" as="geometry" />
        </mxCell>
        <mxCell id="5SM_mKAItrkfPZ67ftxn-61" style="edgeStyle=orthogonalEdgeStyle;rounded=0;orthogonalLoop=1;jettySize=auto;html=1;exitX=1;exitY=0.5;exitDx=0;exitDy=0;entryX=0.5;entryY=0;entryDx=0;entryDy=0;" edge="1" parent="1" source="5SM_mKAItrkfPZ67ftxn-39" target="5SM_mKAItrkfPZ67ftxn-58">
          <mxGeometry relative="1" as="geometry" />
        </mxCell>
        <mxCell id="5SM_mKAItrkfPZ67ftxn-71" style="edgeStyle=orthogonalEdgeStyle;rounded=0;orthogonalLoop=1;jettySize=auto;html=1;exitX=1;exitY=0.5;exitDx=0;exitDy=0;entryX=0.5;entryY=0;entryDx=0;entryDy=0;" edge="1" parent="1" source="5SM_mKAItrkfPZ67ftxn-39" target="5SM_mKAItrkfPZ67ftxn-68">
          <mxGeometry relative="1" as="geometry" />
        </mxCell>
        <mxCell id="5SM_mKAItrkfPZ67ftxn-39" value="Technician" style="text;html=1;align=center;verticalAlign=middle;whiteSpace=wrap;rounded=0;" vertex="1" parent="1">
          <mxGeometry x="520" y="205" width="60" height="30" as="geometry" />
        </mxCell>
        <mxCell id="5SM_mKAItrkfPZ67ftxn-45" value="Book Ticket" style="rounded=1;whiteSpace=wrap;html=1;absoluteArcSize=1;arcSize=14;strokeWidth=2;" vertex="1" parent="1">
          <mxGeometry x="80" y="250" width="100" height="40" as="geometry" />
        </mxCell>
        <mxCell id="5SM_mKAItrkfPZ67ftxn-46" value="Refund Ticket" style="rounded=1;whiteSpace=wrap;html=1;absoluteArcSize=1;arcSize=14;strokeWidth=2;" vertex="1" parent="1">
          <mxGeometry x="200" y="250" width="100" height="40" as="geometry" />
        </mxCell>
        <mxCell id="5SM_mKAItrkfPZ67ftxn-47" value="View Ticket(s)" style="rounded=1;whiteSpace=wrap;html=1;absoluteArcSize=1;arcSize=14;strokeWidth=2;" vertex="1" parent="1">
          <mxGeometry x="-160" y="250" width="100" height="40" as="geometry" />
        </mxCell>
        <mxCell id="5SM_mKAItrkfPZ67ftxn-48" value="View Transactions" style="rounded=1;whiteSpace=wrap;html=1;absoluteArcSize=1;arcSize=14;strokeWidth=2;" vertex="1" parent="1">
          <mxGeometry x="-280" y="250" width="100" height="40" as="geometry" />
        </mxCell>
        <mxCell id="5SM_mKAItrkfPZ67ftxn-49" value="Assign Tickets" style="rounded=1;whiteSpace=wrap;html=1;absoluteArcSize=1;arcSize=14;strokeWidth=2;" vertex="1" parent="1">
          <mxGeometry x="780" y="240" width="100" height="40" as="geometry" />
        </mxCell>
        <mxCell id="5SM_mKAItrkfPZ67ftxn-54" value="Validate Ticket" style="rounded=1;whiteSpace=wrap;html=1;absoluteArcSize=1;arcSize=14;strokeWidth=2;" vertex="1" parent="1">
          <mxGeometry x="780" y="290" width="100" height="40" as="geometry" />
        </mxCell>
        <mxCell id="5SM_mKAItrkfPZ67ftxn-55" value="Book Ticket" style="rounded=1;whiteSpace=wrap;html=1;absoluteArcSize=1;arcSize=14;strokeWidth=2;" vertex="1" parent="1">
          <mxGeometry x="780" y="340" width="100" height="40" as="geometry" />
        </mxCell>
        <mxCell id="5SM_mKAItrkfPZ67ftxn-57" value="Handle Transactions" style="rounded=1;whiteSpace=wrap;html=1;absoluteArcSize=1;arcSize=14;strokeWidth=2;" vertex="1" parent="1">
          <mxGeometry x="660" y="240" width="100" height="40" as="geometry" />
        </mxCell>
        <mxCell id="5SM_mKAItrkfPZ67ftxn-58" value="View Data" style="rounded=1;whiteSpace=wrap;html=1;absoluteArcSize=1;arcSize=14;strokeWidth=2;" vertex="1" parent="1">
          <mxGeometry x="900" y="240" width="100" height="40" as="geometry" />
        </mxCell>
        <mxCell id="5SM_mKAItrkfPZ67ftxn-62" value="Logout" style="rounded=1;whiteSpace=wrap;html=1;absoluteArcSize=1;arcSize=14;strokeWidth=2;" vertex="1" parent="1">
          <mxGeometry x="-400" y="250" width="100" height="40" as="geometry" />
        </mxCell>
        <mxCell id="5SM_mKAItrkfPZ67ftxn-65" value="End" style="strokeWidth=2;html=1;shape=mxgraph.flowchart.start_1;whiteSpace=wrap;" vertex="1" parent="1">
          <mxGeometry x="-400" y="320" width="100" height="60" as="geometry" />
        </mxCell>
        <mxCell id="5SM_mKAItrkfPZ67ftxn-67" style="edgeStyle=orthogonalEdgeStyle;rounded=0;orthogonalLoop=1;jettySize=auto;html=1;exitX=0.5;exitY=1;exitDx=0;exitDy=0;entryX=0.5;entryY=0;entryDx=0;entryDy=0;entryPerimeter=0;" edge="1" parent="1" source="5SM_mKAItrkfPZ67ftxn-62" target="5SM_mKAItrkfPZ67ftxn-65">
          <mxGeometry relative="1" as="geometry" />
        </mxCell>
        <mxCell id="5SM_mKAItrkfPZ67ftxn-68" value="Logout" style="rounded=1;whiteSpace=wrap;html=1;absoluteArcSize=1;arcSize=14;strokeWidth=2;" vertex="1" parent="1">
          <mxGeometry x="1030" y="240" width="100" height="40" as="geometry" />
        </mxCell>
        <mxCell id="5SM_mKAItrkfPZ67ftxn-69" value="End" style="strokeWidth=2;html=1;shape=mxgraph.flowchart.start_1;whiteSpace=wrap;" vertex="1" parent="1">
          <mxGeometry x="1030" y="310" width="100" height="60" as="geometry" />
        </mxCell>
        <mxCell id="5SM_mKAItrkfPZ67ftxn-70" style="edgeStyle=orthogonalEdgeStyle;rounded=0;orthogonalLoop=1;jettySize=auto;html=1;exitX=0.5;exitY=1;exitDx=0;exitDy=0;entryX=0.5;entryY=0;entryDx=0;entryDy=0;entryPerimeter=0;" edge="1" parent="1" source="5SM_mKAItrkfPZ67ftxn-68" target="5SM_mKAItrkfPZ67ftxn-69">
          <mxGeometry relative="1" as="geometry" />
        </mxCell>
        <mxCell id="5SM_mKAItrkfPZ67ftxn-72" style="edgeStyle=orthogonalEdgeStyle;rounded=0;orthogonalLoop=1;jettySize=auto;html=1;exitX=0.5;exitY=1;exitDx=0;exitDy=0;entryX=0.5;entryY=0;entryDx=0;entryDy=0;entryPerimeter=0;" edge="1" parent="1" source="5SM_mKAItrkfPZ67ftxn-33" target="5SM_mKAItrkfPZ67ftxn-35">
          <mxGeometry relative="1" as="geometry" />
        </mxCell>
      </root>
    </mxGraphModel>
  </diagram>
</mxfile>
